<svg xmlns="http://www.w3.org/2000/svg" style="position:absolute;width:0;height:0"><symbol viewBox="0 0 24 24" id="icon--bold"><path d="M17.194 10.962A6.271 6.271 0 0 0 12.844.248H4.3a1.25 1.25 0 0 0 0 2.5h1.013a.25.25 0 0 1 .25.25V21a.25.25 0 0 1-.25.25H4.3a1.25 1.25 0 1 0 0 2.5h9.963a6.742 6.742 0 0 0 2.93-12.786zm-4.35-8.214a3.762 3.762 0 0 1 0 7.523H8.313a.25.25 0 0 1-.25-.25V3a.25.25 0 0 1 .25-.25zm1.42 18.5H8.313a.25.25 0 0 1-.25-.25v-7.977a.25.25 0 0 1 .25-.25h5.951a4.239 4.239 0 0 1 0 8.477z"/></symbol><symbol viewBox="0 0 24 24" id="icon--checklist"><path d="M21 0H3a3 3 0 0 0-3 3v18a3 3 0 0 0 3 3h18a3 3 0 0 0 3-3V3a3 3 0 0 0-3-3zm1 21a1 1 0 0 1-1 1H3a1 1 0 0 1-1-1V3a1 1 0 0 1 1-1h18a1 1 0 0 1 1 1z"/><path d="M11.249 4.5a1.251 1.251 0 0 0-1.75.25L7.365 7.6l-.482-.481a1.25 1.25 0 0 0-1.767 1.764l1.5 1.5a1.262 1.262 0 0 0 1.884-.134l3-4a1.25 1.25 0 0 0-.251-1.749zm0 9a1.251 1.251 0 0 0-1.75.25L7.365 16.6l-.482-.481a1.25 1.25 0 1 0-1.767 1.768l1.5 1.5a1.265 1.265 0 0 0 1.884-.138l3-4a1.25 1.25 0 0 0-.251-1.749zM18.5 7.749H14a1.25 1.25 0 0 0 0 2.5h4.5a1.25 1.25 0 0 0 0-2.5zm0 8H14a1.25 1.25 0 0 0 0 2.5h4.5a1.25 1.25 0 1 0 0-2.5z"/></symbol><symbol viewBox="0 0 24 24" id="icon--code"><path d="M9.147 21.552a1.244 1.244 0 0 1-.895-.378L.84 13.561a2.257 2.257 0 0 1 0-3.125l7.412-7.613a1.25 1.25 0 0 1 1.791 1.744l-6.9 7.083a.5.5 0 0 0 0 .7l6.9 7.082a1.25 1.25 0 0 1-.9 2.122zm5.707 0a1.25 1.25 0 0 1-.9-2.122l6.9-7.083a.5.5 0 0 0 0-.7l-6.9-7.082a1.25 1.25 0 0 1 1.791-1.744l7.411 7.612a2.257 2.257 0 0 1 0 3.125l-7.412 7.614a1.244 1.244 0 0 1-.89.38zm6.514-9.373z"/></symbol><symbol viewBox="0 0 24 24" id="icon--italic"><path d="M22.5.248h-7.637a1.25 1.25 0 0 0 0 2.5h1.086a.25.25 0 0 1 .211.384L4.78 21.017a.5.5 0 0 1-.422.231H1.5a1.25 1.25 0 0 0 0 2.5h7.637a1.25 1.25 0 0 0 0-2.5H8.051a.25.25 0 0 1-.211-.384L19.22 2.98a.5.5 0 0 1 .422-.232H22.5a1.25 1.25 0 0 0 0-2.5z"/></symbol><symbol viewBox="0 0 24 24" id="icon--link"><path d="M12.406 14.905a1 1 0 0 0-.543 1.307 1 1 0 0 1-.217 1.09l-2.828 2.829a2 2 0 0 1-2.828 0L3.868 18.01a2 2 0 0 1 0-2.829L6.7 12.353a1.013 1.013 0 0 1 1.091-.217 1 1 0 0 0 .763-1.849 3.034 3.034 0 0 0-3.268.652l-2.832 2.828a4.006 4.006 0 0 0 0 5.657l2.122 2.121a4 4 0 0 0 5.656 0l2.829-2.828a3.008 3.008 0 0 0 .651-3.27 1 1 0 0 0-1.306-.542z"/><path d="M7.757 16.241a1.011 1.011 0 0 0 1.414 0l7.779-7.778a1 1 0 0 0-1.414-1.414l-7.779 7.778a1 1 0 0 0 0 1.414z"/><path d="M21.546 4.574l-2.121-2.121a4.006 4.006 0 0 0-5.657 0l-2.829 2.828a3.006 3.006 0 0 0-.651 3.269 1 1 0 1 0 1.849-.764 1 1 0 0 1 .217-1.086l2.828-2.828a2 2 0 0 1 2.829 0l2.121 2.121a2 2 0 0 1 0 2.829L17.3 11.645a1.015 1.015 0 0 1-1.091.217 1 1 0 0 0-.765 1.849 3.026 3.026 0 0 0 3.27-.651l2.828-2.828a4.007 4.007 0 0 0 .004-5.658z"/></symbol><symbol viewBox="0 0 24 24" id="icon--ol"><path d="M7.75 4.5h15a1 1 0 0 0 0-2h-15a1 1 0 0 0 0 2zm15 6.5h-15a1 1 0 1 0 0 2h15a1 1 0 0 0 0-2zm0 8.5h-15a1 1 0 0 0 0 2h15a1 1 0 0 0 0-2zM2.212 17.248a2 2 0 0 0-1.933 1.484.75.75 0 1 0 1.45.386.5.5 0 1 1 .483.63.75.75 0 1 0 0 1.5.5.5 0 1 1-.482.635.75.75 0 1 0-1.445.4 2 2 0 1 0 3.589-1.648.251.251 0 0 1 0-.278 2 2 0 0 0-1.662-3.111zm2.038-6.5a2 2 0 0 0-4 0 .75.75 0 0 0 1.5 0 .5.5 0 0 1 1 0 1.031 1.031 0 0 1-.227.645L.414 14.029A.75.75 0 0 0 1 15.248h2.5a.75.75 0 0 0 0-1.5h-.419a.249.249 0 0 1-.195-.406L3.7 12.33a2.544 2.544 0 0 0 .55-1.582zM4 5.248h-.25A.25.25 0 0 1 3.5 5V1.623A1.377 1.377 0 0 0 2.125.248H1.5a.75.75 0 0 0 0 1.5h.25A.25.25 0 0 1 2 2v3a.25.25 0 0 1-.25.25H1.5a.75.75 0 0 0 0 1.5H4a.75.75 0 0 0 0-1.5z"/></symbol><symbol viewBox="0 0 24 24" id="icon--paragraph"><path d="M22.5.248H7.228a6.977 6.977 0 1 0 0 13.954h2.318a.25.25 0 0 1 .25.25V22.5a1.25 1.25 0 0 0 2.5 0V3a.25.25 0 0 1 .25-.25h3.682a.25.25 0 0 1 .25.25v19.5a1.25 1.25 0 0 0 2.5 0V3a.249.249 0 0 1 .25-.25H22.5a1.25 1.25 0 0 0 0-2.5zM9.8 11.452a.25.25 0 0 1-.25.25H7.228a4.477 4.477 0 1 1 0-8.954h2.318A.25.25 0 0 1 9.8 3z"/></symbol><symbol viewBox="0 0 24 24" id="icon--remove"><path d="M20.485 3.511A12.01 12.01 0 1 0 24 12a12.009 12.009 0 0 0-3.515-8.489zm-1.767 15.21A9.51 9.51 0 1 1 21.5 12a9.508 9.508 0 0 1-2.782 6.721z"/><path d="M16.987 7.01a1.275 1.275 0 0 0-1.8 0l-3.177 3.177L8.829 7.01a1.277 1.277 0 0 0-1.805 1.806l3.176 3.177-3.176 3.178a1.277 1.277 0 0 0 1.805 1.806l3.176-3.177 3.177 3.178a1.277 1.277 0 0 0 1.8-1.806l-3.176-3.178 3.176-3.177a1.278 1.278 0 0 0 .005-1.807z"/></symbol><symbol viewBox="0 0 24 24" id="icon--ul"><circle cx="2.5" cy="3.998" r="2.5"/><path d="M8.5 5H23a1 1 0 0 0 0-2H8.5a1 1 0 0 0 0 2z"/><circle cx="2.5" cy="11.998" r="2.5"/><path d="M23 11H8.5a1 1 0 0 0 0 2H23a1 1 0 0 0 0-2z"/><circle cx="2.5" cy="19.998" r="2.5"/><path d="M23 19H8.5a1 1 0 0 0 0 2H23a1 1 0 0 0 0-2z"/></symbol></svg>