<svg width="51" height="51" viewBox="0 0 51 51" fill="none" xmlns="http://www.w3.org/2000/svg">
<path fill-rule="evenodd" clip-rule="evenodd" d="M24.269 47.8341C18.3776 48.8014 16.0914 48.4496 13.7172 47.6582C11.3791 46.8655 9.34912 45.3584 7.9138 43.3496L7.65 43.0858C6.33104 41.2393 5.3638 39.1289 4.48449 33.6772L3.07759 24.5324C2.11035 18.5531 2.37414 16.2669 3.25345 13.8927C4.0737 11.5687 5.53744 9.52554 7.47414 8.00135L7.82587 7.73755C9.67242 6.41859 11.7828 5.45135 17.1466 4.57204L26.1155 3.16514C32.0069 2.1979 34.2931 2.54962 36.6672 3.341C39.0053 4.13374 41.0354 5.64089 42.4707 7.64962L42.7345 8.00135C44.0534 9.8479 45.0207 11.9582 45.9 17.41L47.3069 26.4669C48.2741 32.4462 48.0103 34.7324 47.131 37.1065C46.3394 39.4454 44.8703 41.4961 42.9103 42.9979L42.5586 43.2617C40.7121 44.5807 38.6017 45.5479 33.2379 46.4272L24.269 47.8341Z" fill="#0D0D0D"/>
<path d="M34.3019 31.5676C37.3613 31.5676 39.8415 29.0874 39.8415 26.0279C39.8415 22.9685 37.3613 20.4883 34.3019 20.4883C31.2424 20.4883 28.7622 22.9685 28.7622 26.0279C28.7622 29.0874 31.2424 31.5676 34.3019 31.5676Z" stroke="white" stroke-width="2.42" stroke-linejoin="round"/>
<path d="M22.1093 12.1554L12.1875 13.7588L13.7909 23.6806L23.7127 22.0772L22.1093 12.1554Z" stroke="white" stroke-width="2.43" stroke-linejoin="round"/>
<path d="M21.1035 28.665L28.9294 38.6892L16.8828 40.6237L21.1035 28.665Z" stroke="white" stroke-width="2.42" stroke-linejoin="round"/>
</svg>
