<svg width="66" height="41" viewBox="0 0 66 41" fill="none" xmlns="http://www.w3.org/2000/svg">
<path fill-rule="evenodd" clip-rule="evenodd" d="M52.7002 25.2398C52.3902 25.1698 52.1402 25.0898 51.9002 24.9898C51.7402 24.9098 51.6002 24.8298 51.4802 24.7198C51.4403 24.6857 51.4095 24.6423 51.3903 24.5935C51.3711 24.5447 51.3642 24.4919 51.3702 24.4398C51.4902 23.1698 51.3602 22.0398 51.4702 20.7898C51.9802 15.6698 55.2002 17.2898 58.0902 16.4598C59.7402 15.9898 61.4002 15.0698 62.0102 13.2598C62.1102 12.9598 62.0202 12.6398 61.8102 12.4098C59.947 10.2839 57.8467 8.37815 55.5502 6.72976C47.795 1.33175 38.2879 -0.939673 28.9302 0.36976C28.8512 0.379221 28.7759 0.408588 28.7113 0.455108C28.6468 0.501628 28.5951 0.563778 28.5611 0.635733C28.5271 0.707688 28.512 0.787093 28.5171 0.866504C28.5222 0.945916 28.5473 1.02273 28.5902 1.08976C29.7187 2.8468 31.2254 4.32957 33.0002 5.42976C33.3202 5.62976 33.1902 6.05976 32.8202 5.96976C31.7516 5.73488 30.7393 5.29325 29.8402 4.66976C29.7905 4.63702 29.7333 4.61714 29.674 4.6119C29.6147 4.60667 29.555 4.61624 29.5002 4.63976L27.8102 5.31976C27.7366 5.34977 27.6721 5.39834 27.6228 5.46073C27.5736 5.52312 27.5413 5.59721 27.5293 5.67576C27.5172 5.75432 27.5257 5.83467 27.5539 5.90898C27.5821 5.98329 27.6291 6.04902 27.6902 6.09976C29.9294 8.04028 32.7264 9.22035 35.6789 9.47013C38.6313 9.71992 41.5869 9.02653 44.1202 7.48976C44.4402 7.28976 44.9502 7.68976 44.8502 8.04976C44.6802 8.61976 44.4902 9.40976 44.2902 10.4798C42.9902 17.0098 39.2702 16.5098 34.6602 14.8598C25.4602 11.5198 20.2302 14.3698 15.5902 8.72976C15.2602 8.32976 14.6902 8.19976 14.3102 8.52976C13.7939 8.96913 13.3871 9.52287 13.1223 10.147C12.8574 10.7711 12.7417 11.4483 12.7844 12.125C12.8272 12.8016 13.0271 13.4589 13.3683 14.0448C13.7096 14.6306 14.1827 15.1288 14.7502 15.4998C14.9002 15.5998 15.0902 15.5598 15.2002 15.4298C15.4902 15.0598 15.7202 14.8298 16.0202 14.6698C16.3302 14.5098 16.4902 14.9698 16.2202 15.1998C15.2302 16.0698 14.9502 17.1098 14.3102 19.1698C13.2902 22.3798 13.7202 25.6698 8.99023 26.5298C6.49023 26.6598 6.53023 28.3598 5.62023 30.8898C4.56023 33.9498 3.18023 35.2898 0.62023 37.9698C0.26023 38.3298 0.23023 38.9198 0.62023 39.2498C1.64023 40.1198 2.70023 40.1698 3.77023 39.7298C6.43023 38.6098 8.48023 35.1698 10.4102 32.9398C12.5602 30.4598 17.7202 31.5198 21.6202 29.0898C23.7202 27.7998 24.9902 26.1498 24.5902 23.6898C24.5202 23.2898 24.9802 23.0498 25.1402 23.4198C25.4502 24.1198 25.6602 24.8598 25.7402 25.6198C25.7702 25.8298 25.9402 25.9798 26.1502 25.9698C30.3702 25.7298 35.8202 30.3798 40.9202 31.6398C41.2302 31.7198 41.4502 31.3598 41.2802 31.0898C40.6538 30.145 40.2032 29.0948 39.9502 27.9898C39.8502 27.5998 40.4302 27.4898 40.6302 27.8498C41.3882 29.2218 42.4765 30.383 43.7966 31.2282C45.1168 32.0733 46.6269 32.5757 48.1902 32.6898C49.4302 32.7898 50.7902 32.6398 52.2102 32.2098C53.9102 31.6998 55.4802 31.0398 57.3502 31.3998C58.0473 31.5072 58.716 31.7527 59.317 32.1219C59.918 32.4911 60.4392 32.9765 60.8502 33.5498C61.9802 35.2098 64.3802 35.6498 65.6602 33.9098C65.7438 33.7919 65.7951 33.6542 65.8092 33.5104C65.8232 33.3666 65.7994 33.2216 65.7402 33.0898C62.9202 26.4898 55.7702 26.0398 52.6902 25.2398H52.7002Z" fill="#0D0D0D"/>
</svg>
