<svg width="99" height="30" viewBox="0 0 99 30" fill="none" xmlns="http://www.w3.org/2000/svg">
<path d="M26.5921 22.7484C30.1536 26.5926 36.1675 26.8321 40.0254 23.2834C43.8834 19.7346 44.1251 13.741 40.5653 9.89516C37.0055 6.0493 30.9918 5.80705 27.1322 9.35402C23.2789 12.9074 23.0374 18.8983 26.5921 22.7484ZM36.985 22.2023L36.3202 21.4817C33.9708 22.6873 31.1026 22.1793 29.314 20.2406C27.5253 18.3019 27.2573 15.4109 28.6593 13.1785L29.1823 13.7453C28.0945 15.6778 28.3766 18.0883 29.8815 19.7193C31.3864 21.3504 33.7729 21.8323 35.7961 20.9137L35.1313 20.1931C35.182 20.0969 35.2887 20.0437 35.3963 20.061L36.8465 20.1239C36.9427 20.1139 37.038 20.1499 37.1035 20.2208C37.1689 20.2918 37.1969 20.3894 37.1789 20.4842L37.1186 21.918C37.119 22.0279 37.07 22.1322 36.985 22.2023ZM30.2484 10.4056L30.8822 11.0925C33.2399 9.88873 36.1139 10.4009 37.907 12.3443C39.7001 14.2878 39.9717 17.1849 38.5708 19.4258L38.0167 18.8253C39.1045 16.8928 38.8224 14.4824 37.3175 12.8513C35.8127 11.2202 33.4262 10.7383 31.403 11.657L32.0922 12.4039C32.0055 12.4877 31.8899 12.5349 31.7692 12.5359L30.357 12.4515C30.2608 12.4615 30.1655 12.4256 30.1 12.3546C30.0346 12.2836 30.0066 12.186 30.0246 12.0913L30.0584 10.6817C30.0654 10.5598 30.1401 10.452 30.252 10.4023L30.2484 10.4056Z" fill="#0D0D0D"/>
<path d="M20.444 7.97054C19.9586 6.4746 19.1734 5.09252 18.1359 3.90816C17.0367 2.74479 15.7118 1.81618 14.2416 1.17869C12.5357 0.490414 10.7092 0.148196 8.86906 0.172066H0V3.04673H8.86906C10.1941 3.02554 11.5088 3.28292 12.7274 3.80211C13.7988 4.28215 14.7662 4.96538 15.5757 5.81372C16.3885 6.7154 16.9945 7.78263 17.3518 8.94127C17.7619 10.2184 17.9685 11.5518 17.964 12.8927C17.9712 14.2344 17.7645 15.5687 17.3518 16.8458C16.9948 17.9952 16.4054 19.0596 15.6199 19.9733C14.8569 20.8921 13.8771 21.608 12.7683 22.0567C11.5368 22.5751 10.2106 22.8324 8.87397 22.8121H3.24446V6.46142H0V25.6868H8.86906C10.745 25.6868 12.4393 25.398 13.9535 24.7878C15.4305 24.2092 16.769 23.3277 17.8822 22.2003C18.9895 21.0504 19.8378 19.6782 20.3703 18.1754C20.966 16.4784 21.2586 14.6904 21.2347 12.8927C21.2321 11.2207 20.9647 9.55948 20.4424 7.97054H20.444Z" fill="#0D0D0D"/>
<path d="M45.7076 16.2722C45.6943 17.5619 45.9265 18.8423 46.3918 20.0458C46.8323 21.2011 47.5078 22.2532 48.3758 23.1358C49.2204 24.0517 50.2534 24.7751 51.4042 25.2567C52.6274 25.8049 53.9576 26.0751 55.2985 26.048C56.2006 26.057 57.0993 25.9361 57.9668 25.6891C58.7925 25.4821 59.5823 25.1521 60.3093 24.7102C60.9853 24.3212 61.5935 23.8253 62.1099 23.2419C62.624 22.6815 63.0381 22.0375 63.3344 21.3379L60.2405 20.4047C60.0828 20.8312 59.8375 21.2202 59.5202 21.5468C59.164 21.8957 58.764 22.1973 58.3302 22.4441C57.878 22.7401 57.3804 22.9606 56.8569 23.0967C56.3279 23.2386 55.7825 23.311 55.2347 23.312C54.3861 23.3179 53.547 23.134 52.7792 22.7736C52.0242 22.4244 51.349 21.9246 50.7952 21.3053C50.214 20.6397 49.7617 19.8724 49.4611 19.0424C49.1068 18.1614 48.9353 17.2179 48.9569 16.2689C48.9412 15.3236 49.0999 14.3835 49.4251 13.4954C49.7348 12.6909 50.1866 11.9483 50.7592 11.3027C51.3093 10.6872 51.986 10.1969 52.7432 9.86537C54.4533 9.07789 56.4391 9.15803 58.0797 10.0807C58.9219 10.5773 59.6167 11.2878 60.0932 12.1397L63.1936 11.1608C62.4876 9.79594 61.414 8.65417 60.0932 7.86354C58.723 7.03638 57.1368 6.60567 55.2625 6.60567C53.9124 6.59697 52.575 6.86577 51.3338 7.39531C50.2075 7.8865 49.1899 8.59514 48.3398 9.48034C47.4783 10.3474 46.8139 11.389 46.3918 12.5345C45.9297 13.7263 45.6975 14.9945 45.7076 16.2722V16.2722Z" fill="#0D0D0D"/>
<path d="M67.3232 25.6866H70.5677V0.171875H67.3232V25.6866Z" fill="#0D0D0D"/>
<path d="M98.0639 17.8882C99.2879 14.8002 99.3136 11.3684 98.1359 8.26249C97.5611 6.74401 96.7307 5.33433 95.6805 4.09406C94.6136 2.88603 93.3316 1.88537 91.8991 1.14271C90.3771 0.376664 88.6932 -0.0149377 86.9882 0.000677509C85.3158 -0.0180362 83.6621 0.351159 82.1575 1.07909C80.7152 1.76922 79.4197 2.7297 78.3417 3.90807C77.253 5.12616 76.3865 6.52477 75.7815 8.04061C75.1768 9.60163 74.8709 11.2617 74.8796 12.935C74.8773 14.5674 75.1706 16.1868 75.7455 17.7153C76.2817 19.2411 77.1163 20.6458 78.201 21.8478C79.2466 23.0696 80.536 24.0608 81.9873 24.7584C83.4605 25.5138 85.0877 25.8727 86.926 25.8727C88.1791 25.8924 89.4254 25.6851 90.6042 25.2609C90.7152 25.2307 90.8244 25.1947 90.9316 25.1532L88.8412 22.7468C88.2268 22.8932 87.597 22.9656 86.9653 22.9621C85.6311 22.9621 84.4411 22.7092 83.364 22.135C82.2857 21.6011 81.3364 20.8408 80.5811 19.9064C79.7874 18.9608 79.1768 17.8765 78.7805 16.7087C78.3588 15.4956 78.1517 14.2187 78.1682 12.935C78.1607 11.6877 78.3677 10.4483 78.7805 9.27074C79.161 8.10994 79.747 7.02641 80.5107 6.07141C81.2744 5.12704 82.2208 4.34531 83.2936 3.77266C84.4286 3.18469 85.6928 2.88806 86.9718 2.90961C88.1986 2.90562 89.4092 3.18895 90.506 3.73677C91.5694 4.29279 92.5144 5.04907 93.2889 5.96374C94.0828 6.92315 94.6931 8.01975 95.0895 9.19896C95.522 10.3974 95.7435 11.6614 95.7443 12.935C95.7339 14.1435 95.5391 15.3433 95.1664 16.4933C94.7869 17.6108 94.24 18.6647 93.5442 19.6192L91.5979 17.3564H88.396L91.8336 21.3388L93.7799 23.6017L95.5806 25.6867H98.7547L95.5397 21.9849C96.6126 20.7752 97.4666 19.389 98.0639 17.8882V17.8882Z" fill="#0D0D0D"/>
</svg>
