<svg width="52" height="48" viewBox="0 0 52 48" fill="none" xmlns="http://www.w3.org/2000/svg">
<path fill-rule="evenodd" clip-rule="evenodd" d="M26.0153 47.914L35.5833 18.4902H16.4473L26.0153 47.914Z" fill="#0D0D0D"/>
<path opacity="0.75" fill-rule="evenodd" clip-rule="evenodd" d="M26.0149 47.914L16.4469 18.4902H3.0376L26.0149 47.914Z" fill="#0D0D0D"/>
<path opacity="0.5" fill-rule="evenodd" clip-rule="evenodd" d="M3.03785 18.4902L0.130303 27.4318C-0.134897 28.2473 0.155561 29.1408 0.849884 29.6448L26.0152 47.914L3.03785 18.4902Z" fill="#0D0D0D"/>
<path fill-rule="evenodd" clip-rule="evenodd" d="M3.0376 18.4905H16.4469L10.6841 0.768868C10.3877 -0.143132 9.09659 -0.142884 8.80019 0.768868L3.0376 18.4905Z" fill="#0D0D0D"/>
<path opacity="0.75" fill-rule="evenodd" clip-rule="evenodd" d="M26.0151 47.914L35.5831 18.4902H48.9925L26.0151 47.914Z" fill="#0D0D0D"/>
<path opacity="0.5" fill-rule="evenodd" clip-rule="evenodd" d="M48.9924 18.4902L51.9 27.4318C52.1652 28.2473 51.8747 29.1408 51.1804 29.6448L26.0151 47.914L48.9924 18.4902Z" fill="#0D0D0D"/>
<path fill-rule="evenodd" clip-rule="evenodd" d="M48.9923 18.4905H35.583L41.3458 0.768868C41.6422 -0.143132 42.9333 -0.142884 43.2297 0.768868L48.9923 18.4905Z" fill="#0D0D0D"/>
</svg>
