<svg width="87" height="40" viewBox="0 0 87 40" fill="none" xmlns="http://www.w3.org/2000/svg">
<path d="M43.5663 0C34.5485 0 26.9051 6.17423 24.5362 14.5396C22.4774 10.1025 18.0158 6.9939 12.8768 6.9939C5.80951 6.9939 0 12.8611 0 19.9987C0 27.1362 5.80951 33.0061 12.8768 33.0061C18.0158 33.0061 22.4774 29.8956 24.5362 25.4577C26.9051 33.8237 34.5485 40 43.5663 40C52.5174 40 60.1218 33.9169 62.5513 25.6452C64.6482 29.9824 69.0546 33.0061 74.1205 33.0061C81.1878 33.0061 87 27.1362 87 19.9987C87 12.8611 81.1878 6.9939 74.1205 6.9939C69.0546 6.9939 64.6482 10.0157 62.5513 14.3521C60.1218 6.08109 52.5174 0 43.5663 0ZM43.5663 7.6341C50.3737 7.6341 55.8119 13.1236 55.8119 19.9987C55.8119 26.8737 50.3737 32.3659 43.5663 32.3659C36.7589 32.3659 31.3234 26.8737 31.3234 19.9987C31.3234 13.1236 36.7589 7.6341 43.5663 7.6341ZM12.8768 14.628C15.8593 14.628 18.1973 16.9865 18.1973 19.9987C18.1973 23.0108 15.8593 25.372 12.8768 25.372C9.89432 25.372 7.55899 23.0108 7.55899 19.9987C7.55899 16.9865 9.89432 14.628 12.8768 14.628ZM74.1205 14.628C77.103 14.628 79.441 16.9865 79.441 19.9987C79.441 23.0108 77.103 25.372 74.1205 25.372C71.1381 25.372 68.8027 23.0108 68.8027 19.9987C68.8027 16.9865 71.1381 14.628 74.1205 14.628Z" fill="#0D0D0D"/>
</svg>
