<svg width="103" height="32" viewBox="0 0 103 32" fill="none" xmlns="http://www.w3.org/2000/svg">
<path d="M39.7285 10.2586C39.415 10.6585 39.0849 11.0242 38.7681 11.3149C37.3724 12.6134 35.6508 13.6224 34.6149 12.4939C33.2623 11.2506 35.3344 7.64004 34.7149 7.67222C33.9626 7.71128 31.7015 9.93337 31.1182 17.3636C30.887 18.8643 27.1905 19.2752 27.4406 17.2918C27.4389 17.2604 27.4406 17.0506 27.4476 16.7296C26.1596 18.1803 24.6439 19.2964 22.7876 19.7634C17.2667 21.1521 15.83 17.0416 15.5543 14.9505C15.0468 11.1029 16.9915 8.56054 18.8092 7.23221C20.4204 6.05481 23.8035 5.70345 25.3131 6.87926C27.5736 8.63991 26.2462 11.0385 25.5677 11.8166C24.868 12.619 23.214 12.8463 22.5169 12.2774C21.8197 11.7085 21.5899 9.98412 23.214 9.19681C23.027 8.64467 21.8295 8.44204 20.6659 9.36296C17.3085 12.02 19.3826 17.3438 22.897 16.7549C24.9253 16.415 26.3475 15.4077 27.53 13.6674C27.547 13.6424 27.5731 13.5919 27.6081 13.5277C27.6438 13.131 27.6865 12.7665 27.7373 12.4739C28.1028 10.3399 28.3234 8.8645 28.9322 6.95007C29.8461 4.93222 30.332 4.78846 31.8079 4.65846C33.2839 4.52846 32.9878 6.07441 32.7655 7.72967C32.7655 7.72967 34.8773 4.53801 36.4146 4.23925C37.4721 4.09676 38.4383 4.74716 38.6708 5.78596C38.9567 6.99713 37.3486 9.31375 37.8981 9.63551C38.1861 9.69088 39.5895 8.2533 40.4955 7.18981C40.672 6.63005 40.8712 6.04261 41.0912 5.41959C41.6864 3.73442 42.7859 3.26805 44.1411 3.41635C44.9626 3.50615 45.2782 4.39006 45.1831 5.1922C45.0112 6.64195 43.7171 10.2685 43.558 12.3871C43.4875 13.3262 44.4732 13.3237 44.7343 13.1932C45.5171 12.8025 46.0101 12.072 46.2907 11.2883C46.8181 9.81612 48.1329 5.53362 48.4092 4.90899C48.8149 3.99198 49.4958 3.19003 50.9183 3.1653C52.493 3.13792 52.5985 4.2224 52.1121 5.75439C51.678 7.12133 51.049 9.86731 50.9183 11.7613C50.8794 12.3241 50.9183 13.3121 51.7438 13.3121C52.5093 13.3121 53.5228 12.4143 54.0331 10.9963C54.2846 9.01175 54.7097 7.00226 55.2841 5.06315C55.8872 3.02683 57.4341 2.63746 58.6429 2.87491C59.5986 3.06264 59.7389 4.08402 59.0638 5.93905C60.1575 4.71025 61.6681 3.00301 64.1639 3.14842C65.4728 3.22468 65.6601 4.4436 65.8763 5.52666C67.3068 3.65483 69.1513 3.4866 69.979 3.50456C71.4955 3.53767 72.2836 4.70847 72.1404 6.22322C71.9053 8.71177 70.3732 11.4039 70.3732 12.5211C70.3732 13.3757 70.8353 13.677 71.5923 13.2496C71.9903 13.0246 72.363 12.7175 72.671 12.3783C73.041 11.9704 73.3828 11.5369 73.7235 11.1025C74.3687 8.43307 75.291 5.26297 75.5571 4.79949C76.0783 3.89186 76.6053 3.4235 77.8241 3.53182C79.0428 3.64013 78.9061 5.05171 78.8323 5.31455C78.7092 5.751 78.371 6.87639 78.408 6.89905C79.7272 5.19524 83.8627 3.53182 85.557 6.35877C87.1426 9.00434 84.4645 13.8464 82.8451 14.6292C84.3274 14.6292 85.7897 14.0868 87.0529 12.6337C87.3512 10.8378 87.9697 9.11658 88.9918 7.51319C89.8103 6.2294 90.7853 5.69027 92.2001 6.12758C93.1753 6.42891 93.4861 7.36181 93.199 8.37949C92.9184 9.37441 91.3876 11.7695 90.7958 14.685C90.5999 15.6501 91.1097 16.1824 91.7326 16.0258C92.4936 15.8346 93.017 15.2939 93.4741 14.685C94.7643 12.9664 95.7991 9.73884 96.5442 8.54043C97.2303 7.43698 98.2226 7.16806 99.5288 7.67615C100.653 8.11333 100.611 9.47106 100.468 9.9853C100.136 11.1737 99.7744 12.3539 99.3996 13.5292C98.7875 15.4503 96.8931 20.964 96.24 22.9716C97.793 23.2312 100.332 23.9238 101.488 24.6895C102.645 25.4551 102.79 26.7043 102.052 27.2355C101.314 27.7667 100.112 27.1645 99.3996 26.5961C98.687 26.0276 96.9979 25.3556 95.4584 25.1786C94.8848 26.6026 93.4578 31.0336 88.7759 29.6128C86.2016 28.8315 84.1182 23.4633 92.4956 22.4794C92.5943 22.0733 93.0961 20.2893 94.001 17.1275C93.7278 17.3284 91.7259 19.2246 89.9594 19.0397C88.1929 18.8548 86.9315 17.9868 86.8538 16.2076C86.8488 16.0918 86.8447 15.9761 86.8417 15.8606C84.8202 17.5545 83.0507 17.8366 80.954 17.4561C79.617 17.2135 78.6907 16.6721 78.6267 15.4915C78.6022 15.0414 78.7141 14.7037 79.1535 14.4685C79.404 14.3346 79.8178 14.2059 80.1635 13.8464C80.968 13.0097 82.1919 10.538 81.7991 9.19109C81.4526 8.00307 79.8965 8.0119 78.8323 9.582C77.782 11.1314 77.1589 12.3166 76.8636 15.3231C76.5683 18.3296 77.0956 22.1813 77.4747 23.4611C77.7212 24.2936 77.3685 25.14 76.8636 25.3335C75.3154 25.9269 73.6405 24.8078 73.1169 23.151C72.7281 21.9207 72.671 17.9348 73.0342 14.7568C72.6058 15.0909 72.1461 15.3918 71.6566 15.6594C70.5628 16.2571 69.3886 16.2665 68.2218 16.0361C67.0147 15.7975 66.3904 14.9149 66.3904 13.6671C66.3904 11.5399 67.4418 9.74722 67.8 8.71177C67.9439 8.29528 68.2923 7.41964 67.799 7.41964C66.8798 7.26182 66.138 8.01284 65.5852 8.95002C65.0325 9.8872 64.3995 11.9747 64.0166 14.3032C63.8136 15.5372 63.1786 16.1395 61.6681 16.0361C60.1575 15.9326 60.1261 14.6079 60.1575 13.9416C60.2603 11.7625 61.182 9.51774 61.4822 8.71177C61.5897 8.4232 61.9207 7.5947 61.1993 7.50717C60.4779 7.41964 59.7972 7.80312 59.3789 8.50615C58.7908 9.49446 58.1554 11.3958 57.6849 14.2267C57.5343 15.1328 57.5195 15.7509 56.8438 15.9326C56.043 16.1479 55.2635 16.0418 54.6049 15.4832C54.2357 15.1701 54.0012 14.7764 53.8864 14.3491C52.9615 15.2482 51.8432 15.8257 50.3619 16.0696C48.9636 16.2999 47.3374 15.9155 46.888 14.2364C46.3336 14.674 44.5653 16.3516 42.8323 16.3516C41.0993 16.3516 39.9453 15.3585 39.7334 14.1703C39.4974 12.8465 39.5096 11.5995 39.7285 10.2586ZM89.2143 26.2275C88.8737 26.9983 89.8148 27.7766 90.6345 27.2636C91.4542 26.7505 91.6644 25.2942 91.9559 24.6239C91.8867 24.5545 89.805 24.8907 89.2143 26.2275ZM10.6978 26.9818C16.1307 24.4866 40.2873 17.7888 69.5176 19.9338C70.0564 19.9338 70.5054 20.3716 70.5054 20.8531C70.5054 21.3784 70.2326 22.0088 69.5176 22.0088C46.3937 20.6517 22.9107 25.2308 11.3264 31.2281C9.75484 32.0161 8.31802 31.5784 7.91392 30.8779C7.46491 29.9586 7.68941 28.2951 10.6978 26.9818ZM1.3626 14.1778C2.27204 13.3339 3.23594 12.8769 4.22178 13.4912C5.20762 14.1054 5.16767 15.0164 4.73825 15.9826C4.12318 17.3665 4.34183 18.3953 5.73874 19.1827C7.13565 19.97 10.3446 19.2657 10.3446 17.1026C10.3446 14.9395 9.34753 14.0251 8.38702 13.1833C6.94556 11.92 2.39974 9.47273 3.77568 4.79613C5.15163 0.119525 9.41375 -0.321818 12.3997 0.521245C15.5707 1.41654 15.3476 4.79613 14.7833 5.88506C14.2191 6.974 13.5809 7.63476 12.5311 7.35158C11.4813 7.06841 11.0355 5.87064 11.311 5.27304C11.5864 4.67544 10.9744 3.73077 10.0338 3.73077C6.76541 3.73077 6.42958 7.40598 9.00119 9.15537C10.8653 10.4235 14.2361 12.1074 14.7833 15.7603C15.3785 19.7332 12.3187 23.2711 8.06867 23.5319C-1.47933 24.1179 -0.0316101 15.4716 1.3626 14.1778ZM81.4484 21.0006C82.5832 21.08 83.9765 21.2554 84.8668 21.4294C85.757 21.6034 86.2307 22.3105 85.8225 22.8609C85.4144 23.4112 84.894 23.6025 84.1091 23.4597C83.5857 23.3646 82.4741 23.2038 80.7742 22.9774C80.1543 22.8745 79.5705 22.3694 79.6756 21.8095C79.7806 21.2496 80.3135 20.9213 81.4484 21.0006Z" fill="#0D0D0D"/>
</svg>
