<svg width="54" height="43" viewBox="0 0 54 43" fill="none" xmlns="http://www.w3.org/2000/svg">
<path d="M44.2992 43C48.2272 43 49.6688 41.3116 49.6688 37.1805V29.1337C49.6688 25.2899 51.5427 23.0986 53.3446 22.0568C53.8851 21.7335 53.8851 20.9791 53.3446 20.6199C51.4706 19.4344 49.6688 16.9557 49.6688 13.6508V5.7477C49.6688 1.29323 48.4435 0 44.5154 0H9.23462C5.30653 0 4.08125 1.29323 4.08125 5.7477V13.6508C4.08125 16.9557 2.27937 19.4344 0.405422 20.6199C-0.135141 20.9432 -0.135141 21.7335 0.405422 22.0568C2.2073 23.0627 4.08125 25.254 4.08125 29.1337V37.1805C4.08125 41.3116 5.52275 43 9.45085 43H44.2992ZM27.4727 34.6774C23.1941 34.6774 20.0857 33.4468 17.1967 31.0207C16.7213 30.5988 16.5385 30.0713 16.5385 29.5439C16.5385 29.122 16.6482 28.6649 16.9773 28.3133L17.855 27.2233C18.2938 26.6959 18.7692 26.4498 19.3177 26.4498C19.9394 26.4498 20.5245 26.6959 21.1462 27.0827C23.1209 28.3133 25.3151 29.0165 27.9481 29.0165C29.9594 29.0165 31.5684 28.2078 31.5684 26.5553C31.5684 22.2656 16.7213 24.6214 16.7213 14.9873C16.7213 9.81868 21.1096 6.93548 26.8144 6.93548C30.8371 6.93548 33.7992 8.06063 35.9933 9.39675C36.5419 9.74835 36.9076 10.4516 36.9076 11.1548C36.9076 11.5767 36.7979 11.9635 36.5419 12.3151L35.8836 13.2644C35.4082 13.8973 34.8597 14.2138 34.1649 14.2138C33.6895 14.2138 33.1775 14.038 32.629 13.7919C30.9833 12.9832 29.2646 12.5612 27.1801 12.5612C25.0225 12.5612 23.7426 13.6864 23.7426 14.8467C23.7426 19.2418 38.5897 16.8509 38.5897 26.2036C38.5897 31.4426 34.2014 34.6774 27.4727 34.6774Z" fill="#0D0D0D"/>
</svg>
