<svg width="79" height="32" viewBox="0 0 79 32" fill="none" xmlns="http://www.w3.org/2000/svg">
<g clip-path="url(#clip0)">
<path d="M60.6313 0.841797H68.2103V31.9997H60.6313V0.841797ZM70.7366 0.841797H78.3156V31.9997H70.7366V0.841797Z" fill="#0D0D0D"/>
<path d="M54.3157 8.92639C56.6877 8.92639 58.6105 7.00357 58.6105 4.63165C58.6105 2.25973 56.6877 0.336914 54.3157 0.336914C51.9438 0.336914 50.021 2.25973 50.021 4.63165C50.021 7.00357 51.9438 8.92639 54.3157 8.92639Z" fill="#0D0D0D"/>
<path d="M38.6728 22.3563L33.4198 10.9475H28.7411L23.4888 22.0279L18.4404 10.9475H10.1053V5.05273H2.52632V10.9475H0V16.8422H2.52632V32.0001H10.1053V16.8422H13.0754L20.944 32.0001H25.9916L30.9987 20.4683L36.2518 32.0001H41.2168L49.2303 16.8422H50.5263V32.0001H58.1053V10.9475H43.9663L38.6728 22.3563Z" fill="#0D0D0D"/>
</g>
<defs>
<clipPath id="clip0">
<rect width="78.3158" height="32" fill="white"/>
</clipPath>
</defs>
</svg>
