<svg width="42" height="46" viewBox="0 0 42 46" fill="none" xmlns="http://www.w3.org/2000/svg">
<path d="M19.8427 0V11.1097L9.60158 17.0257L22.1019 24.247L41.8816 12.8016V23.9217L4.61767 45.4828L4.57067 45.51L4.51911 45.4772L0 42.6113V31.7843L4.55892 34.3967L12.357 29.8838L0 22.5825V11.4794L19.8427 0ZM38.8439 18.0688L4.56625 37.902L3.03773 37.0261V40.9407L4.64292 41.9586L38.8439 22.1698V18.0688ZM3.03773 16.7423V20.849L15.3751 28.137L18.993 26.0442L18.9954 25.9601L3.03773 16.7423ZM16.8049 5.26685L3.03773 13.2315L5.14041 14.4485L6.56936 15.2738L16.8049 9.35714V5.26685Z" fill="#0D0D0D"/>
</svg>
