<svg xmlns="http://www.w3.org/2000/svg" viewBox="0 0 24 24">
  <title>align-right</title>
  <path d="m1.450824,3.5l21.098352,0a1.455059,1 0 0 0 0,-2l-21.098352,0a1.455059,1 0 0 0 0,2z"/>
  <path d="m7.407742,7.71553l15.521788,0a1.070469,1 0 0 0 0,-2l-15.521788,0a1.070469,1 0 0 0 0,2z"/>
  <path d="m22.549175,10.7l-21.098351,0a1.455059,1 0 0 0 0,2l21.098351,0a1.455059,1 0 0 0 0,-2z"/>
  <path d="m7.399368,17.7l15.529618,0a1.071012,1 0 0 0 0,-2l-15.529618,0a1.071012,1 0 0 0 0,2z"/>
  <path d="m22.549176,20.5l-21.09835,0a1.455059,1 0 0 0 0,2l21.09835,0a1.455059,1 0 0 0 0,-2z"/>
</svg>
