<svg xmlns="http://www.w3.org/2000/svg" viewBox="0 0 24 24">
  <title>align-justify</title>
  <path d="m1.450824,3.5l21.098352,0a1.455059,1 0 0 0 0,-2l-21.098352,0a1.455059,1 0 0 0 0,2z"/>
  <path d="m1.453568,7.71553l21.076712,0a1.453568,1 0 0 0 0,-2l-21.076712,0a1.453568,1 0 0 0 0,2z"/>
  <path d="m22.549175,10.7l-21.098351,0a1.455059,1 0 0 0 0,2l21.098351,0a1.455059,1 0 0 0 0,-2z"/>
  <path d="m1.451888,17.624915l21.072887,0a1.453308,1 0 0 0 0,-2l-21.072887,0a1.453308,1 0 0 0 0,2z"/>
  <path d="m22.549176,20.5l-21.09835,0a1.455059,1 0 0 0 0,2l21.09835,0a1.455059,1 0 0 0 0,-2z"/>
</svg>
