<svg xmlns="http://www.w3.org/2000/svg" viewBox="0 0 24 24"><title>text-bold</title><path d="M17.194,10.962A6.271,6.271,0,0,0,12.844.248H4.3a1.25,1.25,0,0,0,0,2.5H5.313a.25.25,0,0,1,.25.25V21a.25.25,0,0,1-.25.25H4.3a1.25,1.25,0,1,0,0,2.5h9.963a6.742,6.742,0,0,0,2.93-12.786Zm-4.35-8.214a3.762,3.762,0,0,1,0,7.523H8.313a.25.25,0,0,1-.25-.25V3a.25.25,0,0,1,.25-.25Zm1.42,18.5H8.313a.25.25,0,0,1-.25-.25V13.021a.25.25,0,0,1,.25-.25h4.531c.017,0,.033,0,.049,0l.013,0h1.358a4.239,4.239,0,0,1,0,8.477Z"/></svg>
