<svg xmlns="http://www.w3.org/2000/svg" viewBox="0 0 24 24"><title>angle-brackets</title><path d="M9.147,21.552a1.244,1.244,0,0,1-.895-.378L.84,13.561a2.257,2.257,0,0,1,0-3.125L8.252,2.823a1.25,1.25,0,0,1,1.791,1.744l-6.9,7.083a.5.5,0,0,0,0,.7l6.9,7.082a1.25,1.25,0,0,1-.9,2.122Z"/><path d="M14.854,21.552a1.25,1.25,0,0,1-.9-2.122l6.9-7.083a.5.5,0,0,0,0-.7l-6.9-7.082a1.25,1.25,0,0,1,1.791-1.744l7.411,7.612a2.257,2.257,0,0,1,0,3.125l-7.412,7.614A1.244,1.244,0,0,1,14.854,21.552Zm6.514-9.373h0Z"/></svg>
