<svg xmlns="http://www.w3.org/2000/svg" width="24" height="24" viewBox="0 0 24 24">
  <path d="M19,14 C21.7600532,14.0033061 23.9966939,16.2399468 24,19 C24,21.7614237 21.7614237,24 19,24 C16.2385763,24 14,21.7614237 14,19 C14,16.2385763 16.2385763,14 19,14 Z M16.5,19.9375 L21.5,19.9375 C22.017767,19.9375 22.4375,19.517767 22.4375,19 C22.4375,18.482233 22.017767,18.0625 21.5,18.0625 L16.5,18.0625 C15.982233,18.0625 15.5625,18.482233 15.5625,19 C15.5625,19.517767 15.982233,19.9375 16.5,19.9375 Z M12.2898787,17 L9,17 L9,22 L12.6736312,22 C13.0297295,22.7496048 13.515133,23.4258795 14.1010173,24 L5,24 C2.23857625,24 -1.43817996e-15,21.7614237 -1.77635684e-15,19 L-3.55271368e-15,5 C-3.89089055e-15,2.23857625 2.23857625,5.07265313e-16 5,-1.77635684e-15 L19,-1.77635684e-15 C21.7614237,-2.28362215e-15 24,2.23857625 24,5 L24,7.82313285 C24.0122947,7.88054124 24.0187107,7.93964623 24.0187107,8 C24.0187107,8.06035377 24.0122947,8.11945876 24,8.17686715 L24,14.1010173 C23.4258795,13.515133 22.7496048,13.0297295 22,12.6736312 L22,9 L17,9 L17,12.2898787 C16.2775651,12.5048858 15.6040072,12.8333806 15,13.2546893 L15,9 L9,9 L9,15 L13.2546893,15 C12.8333806,15.6040072 12.5048858,16.2775651 12.2898787,17 Z M17,7 L22,7 L22,5 C22,3.34314575 20.6568542,2 19,2 L17,2 L17,7 Z M15,7 L15,2 L9,2 L9,7 L15,7 Z M7,2 L5,2 C3.34314575,2 2,3.34314575 2,5 L2,7 L7,7 L7,2 Z M2,9 L2,15 L7,15 L7,9 L2,9 Z M2,17 L2,19 C2,20.6568542 3.34314575,22 5,22 L7,22 L7,17 L2,17 Z"/>
</svg>
