<svg xmlns="http://www.w3.org/2000/svg" viewBox="0 0 24 24"><title>paginate-filter-picture-alternate</title><circle cx="9.75" cy="6.247" r="2.25"/><path d="M16.916,8.71A1.027,1.027,0,0,0,16,8.158a1.007,1.007,0,0,0-.892.586L13.55,12.178a.249.249,0,0,1-.422.053l-.82-1.024a1,1,0,0,0-.813-.376,1.007,1.007,0,0,0-.787.426L7.59,15.71A.5.5,0,0,0,8,16.5H20a.5.5,0,0,0,.425-.237.5.5,0,0,0,.022-.486Z"/><path d="M22,0H5.5a2,2,0,0,0-2,2V18.5a2,2,0,0,0,2,2H22a2,2,0,0,0,2-2V2A2,2,0,0,0,22,0Zm-.145,18.354a.5.5,0,0,1-.354.146H6a.5.5,0,0,1-.5-.5V2.5A.5.5,0,0,1,6,2H21.5a.5.5,0,0,1,.5.5V18A.5.5,0,0,1,21.855,18.351Z"/><path d="M19.5,22H2.5a.5.5,0,0,1-.5-.5V4.5a1,1,0,0,0-2,0V22a2,2,0,0,0,2,2H19.5a1,1,0,0,0,0-2Z"/></svg>
