<svg xmlns="http://www.w3.org/2000/svg" viewBox="0 0 24 24"><title>list-numbers</title><path d="M7.75,4.5h15a1,1,0,0,0,0-2h-15a1,1,0,0,0,0,2Z"/><path d="M22.75,11h-15a1,1,0,1,0,0,2h15a1,1,0,0,0,0-2Z"/><path d="M22.75,19.5h-15a1,1,0,0,0,0,2h15a1,1,0,0,0,0-2Z"/><path d="M2.212,17.248A2,2,0,0,0,.279,18.732a.75.75,0,1,0,1.45.386.5.5,0,1,1,.483.63.75.75,0,1,0,0,1.5.5.5,0,1,1-.482.635.75.75,0,1,0-1.445.4,2,2,0,1,0,3.589-1.648.251.251,0,0,1,0-.278,2,2,0,0,0-1.662-3.111Z"/><path d="M4.25,10.748a2,2,0,0,0-4,0,.75.75,0,0,0,1.5,0,.5.5,0,0,1,1,0,1.031,1.031,0,0,1-.227.645L.414,14.029A.75.75,0,0,0,1,15.248H3.5a.75.75,0,0,0,0-1.5H3.081a.249.249,0,0,1-.195-.406L3.7,12.33A2.544,2.544,0,0,0,4.25,10.748Z"/><path d="M4,5.248H3.75A.25.25,0,0,1,3.5,5V1.623A1.377,1.377,0,0,0,2.125.248H1.5a.75.75,0,0,0,0,1.5h.25A.25.25,0,0,1,2,2V5a.25.25,0,0,1-.25.25H1.5a.75.75,0,0,0,0,1.5H4a.75.75,0,0,0,0-1.5Z"/></svg>
