<svg xmlns="http://www.w3.org/2000/svg" width="24" height="24" viewBox="0 0 24 24">
  <path fill-rule="evenodd" d="M17,17 L17,22 L19,22 C20.6568542,22 22,20.6568542 22,19 L22,17 L17,17 Z M15,17 L9,17 L9,22 L15,22 L15,17 Z M17,15 L22,15 L22,9 L17,9 L17,15 Z M15,15 L15,9 L9,9 L9,15 L15,15 Z M17,7 L22,7 L22,5 C22,3.34314575 20.6568542,2 19,2 L17,2 L17,7 Z M15,7 L15,2 L9,2 L9,7 L15,7 Z M24,16.1768671 L24,19 C24,21.7614237 21.7614237,24 19,24 L5,24 C2.23857625,24 2.11453371e-15,21.7614237 1.77635684e-15,19 L0,5 C-3.38176876e-16,2.23857625 2.23857625,2.28362215e-15 5,0 L19,0 C21.7614237,-5.07265313e-16 24,2.23857625 24,5 L24,7.82313285 C24.0122947,7.88054124 24.0187107,7.93964623 24.0187107,8 C24.0187107,8.06035377 24.0122947,8.11945876 24,8.17686715 L24,15.8231329 C24.0122947,15.8805412 24.0187107,15.9396462 24.0187107,16 C24.0187107,16.0603538 24.0122947,16.1194588 24,16.1768671 Z M7,2 L5,2 C3.34314575,2 2,3.34314575 2,5 L2,7 L7,7 L7,2 Z M2,9 L2,15 L7,15 L7,9 L2,9 Z M2,17 L2,19 C2,20.6568542 3.34314575,22 5,22 L7,22 L7,17 L2,17 Z"/>
</svg>
