<svg viewBox="0 0 24 24" xmlns="http://www.w3.org/2000/svg" stroke-linejoin="round" stroke-miterlimit="1.414"><path fill="none" d="M0 0h24v24H0z"/><clipPath id="a"><path d="M0 0h24v24H0z"/></clipPath><g clip-path="url(#a)"><path d="M12.556 18.667c4.413 0 8-3.587 8-8V1.666A1.667 1.667 0 0 0 18.89 0h-.002a1.669 1.669 0 0 0-1.666 1.666v9.001a4.671 4.671 0 0 1-4.666 4.666 4.671 4.671 0 0 1-4.667-4.666V1.666A1.667 1.667 0 0 0 6.223 0h-.001a1.667 1.667 0 0 0-1.666 1.666v9.001c0 4.413 3.586 8 8 8zm-8.002 2.666c-.353 0-.692.141-.942.39-.249.25-.39.589-.39.942v.003A1.332 1.332 0 0 0 4.554 24h16.003a1.332 1.332 0 0 0 1.332-1.332v-.003a1.332 1.332 0 0 0-1.332-1.332H4.554z" fill-rule="nonzero"/></g></svg>
