<svg width="102" height="28" viewBox="0 0 102 28" fill="none" xmlns="http://www.w3.org/2000/svg">
<path d="M41.1627 9.44277H38.8001V6.43427H35.3174V9.44277H33.6006V12.0589H35.3174V18.5991C35.3011 21.0598 36.977 22.278 39.5032 22.1717C40.4024 22.139 41.0401 21.9591 41.3917 21.8447L40.8439 19.2531C40.6722 19.2858 40.3043 19.3676 39.9773 19.3676C39.2824 19.3676 38.8001 19.106 38.8001 18.1413V12.0589H41.1627V9.44277ZM43.4314 22H46.9141V9.44277H43.4314V22ZM45.1809 7.82407C46.2192 7.82407 47.0694 7.03107 47.0694 6.05821C47.0694 5.09352 46.2192 4.30052 45.1809 4.30052C44.1508 4.30052 43.3006 5.09352 43.3006 6.05821C43.3006 7.03107 44.1508 7.82407 45.1809 7.82407ZM49.7039 26.709H53.1865V19.9889H53.2928C53.7752 21.0353 54.8298 22.2044 56.8572 22.2044C59.7186 22.2044 61.9504 19.9398 61.9504 15.7377C61.9504 11.4212 59.6205 9.27927 56.8654 9.27927C54.7644 9.27927 53.7588 10.5301 53.2928 11.552H53.1375V9.44277H49.7039V26.709ZM53.113 15.7214C53.113 13.4814 54.0613 12.0507 55.7536 12.0507C57.4786 12.0507 58.3942 13.5468 58.3942 15.7214C58.3942 17.9124 57.4622 19.433 55.7536 19.433C54.0776 19.433 53.113 17.9614 53.113 15.7214ZM70.9514 9.44277H68.5888V6.43427H65.1061V9.44277H63.3893V12.0589H65.1061V18.5991C65.0897 21.0598 66.7657 22.278 69.2918 22.1717C70.1911 22.139 70.8288 21.9591 71.1803 21.8447L70.6326 19.2531C70.4609 19.2858 70.093 19.3676 69.766 19.3676C69.0711 19.3676 68.5888 19.106 68.5888 18.1413V12.0589H70.9514V9.44277ZM77.7124 22.2044C79.7398 22.2044 80.7945 21.0353 81.2768 19.9889H81.424V22H84.8576V9.44277H81.3831V11.552H81.2768C80.8108 10.5301 79.8052 9.27927 77.7042 9.27927C74.9491 9.27927 72.6192 11.4212 72.6192 15.7377C72.6192 19.9398 74.851 22.2044 77.7124 22.2044ZM78.816 19.433C77.1074 19.433 76.1754 17.9124 76.1754 15.7214C76.1754 13.5468 77.0911 12.0507 78.816 12.0507C80.5083 12.0507 81.4567 13.4814 81.4567 15.7214C81.4567 17.9614 80.492 19.433 78.816 19.433ZM87.721 26.709H91.2036V19.9889H91.3099C91.7922 21.0353 92.8469 22.2044 94.8743 22.2044C97.7357 22.2044 99.9675 19.9398 99.9675 15.7377C99.9675 11.4212 97.6376 9.27927 94.8825 9.27927C92.7815 9.27927 91.7759 10.5301 91.3099 11.552H91.1546V9.44277H87.721V26.709ZM91.1301 15.7214C91.1301 13.4814 92.0784 12.0507 93.7707 12.0507C95.4956 12.0507 96.4113 13.5468 96.4113 15.7214C96.4113 17.9124 95.4793 19.433 93.7707 19.433C92.0947 19.433 91.1301 17.9614 91.1301 15.7214Z" fill="black"/>
<mask id="mask0" mask-type="alpha" maskUnits="userSpaceOnUse" x="0" y="2" width="25" height="25">
<circle cx="12.2302" cy="14.3884" r="12.2302" fill="#C4C4C4"/>
</mask>
<g mask="url(#mask0)">
<line x1="-8.63232" y1="2.87774" x2="34.5331" y2="2.87774" stroke="black" stroke-width="1.43885"/>
<line x1="-8.63281" y1="5.75543" x2="34.5327" y2="5.75543" stroke="black" stroke-width="1.43885"/>
<line x1="-8.63281" y1="8.63311" x2="34.5327" y2="8.63311" stroke="black" stroke-width="1.43885"/>
<line x1="-8.63281" y1="11.5108" x2="34.5327" y2="11.5108" stroke="black" stroke-width="1.43885"/>
<line x1="-8.63281" y1="14.3885" x2="34.5327" y2="14.3885" stroke="black" stroke-width="1.43885"/>
<line x1="-8.63281" y1="17.2662" x2="34.5327" y2="17.2662" stroke="black" stroke-width="1.43885"/>
<line x1="-8.63281" y1="20.1439" x2="34.5327" y2="20.1439" stroke="black" stroke-width="1.43885"/>
<line x1="-8.63281" y1="23.0215" x2="34.5327" y2="23.0215" stroke="black" stroke-width="1.43885"/>
<line x1="-8.63281" y1="25.8992" x2="34.5327" y2="25.8992" stroke="black" stroke-width="1.43885"/>
</g>
</svg>
