<svg width="24" height="24" viewBox="0 0 24 24" fill="none" xmlns="http://www.w3.org/2000/svg">
<path d="M14.3 12.179C14.2767 12.1558 14.2583 12.1282 14.2456 12.0978C14.233 12.0674 14.2266 12.0349 14.2266 12.002C14.2266 11.9691 14.233 11.9366 14.2456 11.9062C14.2583 11.8758 14.2767 11.8482 14.3 11.825L19.563 6.563C19.8443 6.28134 20.0021 5.89948 20.0018 5.50144C20.0016 5.10339 19.8432 4.72176 19.5615 4.4405C19.2798 4.15924 18.898 4.00138 18.4999 4.00166C18.1019 4.00194 17.7203 4.16034 17.439 4.442L12.177 9.7C12.1538 9.72328 12.1262 9.74175 12.0958 9.75435C12.0654 9.76696 12.0329 9.77345 12 9.77345C11.9671 9.77345 11.9346 9.76696 11.9042 9.75435C11.8738 9.74175 11.8462 9.72328 11.823 9.7L6.561 4.442C6.42174 4.30267 6.25639 4.19213 6.07441 4.1167C5.89242 4.04127 5.69736 4.00242 5.50036 4.00237C5.1025 4.00228 4.7209 4.16024 4.4395 4.4415C4.15811 4.72276 3.99997 5.10429 3.99988 5.50214C3.99978 5.9 4.15774 6.2816 4.439 6.563L9.7 11.825C9.72329 11.8482 9.74176 11.8758 9.75436 11.9062C9.76696 11.9366 9.77345 11.9691 9.77345 12.002C9.77345 12.0349 9.76696 12.0674 9.75436 12.0978C9.74176 12.1282 9.72329 12.1558 9.7 12.179L4.43901 17.442C4.29974 17.5813 4.18928 17.7467 4.11393 17.9288C4.03859 18.1108 3.99983 18.3059 3.99988 18.5029C3.99997 18.9007 4.15811 19.2822 4.43951 19.5635C4.57884 19.7028 4.74424 19.8132 4.92626 19.8886C5.10828 19.9639 5.30336 20.0027 5.50036 20.0026C5.89822 20.0025 6.27974 19.8444 6.56101 19.563L11.823 14.3C11.8462 14.2767 11.8738 14.2582 11.9042 14.2456C11.9346 14.233 11.9671 14.2266 12 14.2266C12.0329 14.2266 12.0654 14.233 12.0958 14.2456C12.1262 14.2582 12.1538 14.2767 12.177 14.3L17.439 19.563C17.7203 19.8444 18.1018 20.0025 18.4997 20.0026C18.8975 20.0027 19.2791 19.8448 19.5605 19.5635C19.8419 19.2822 20 18.9007 20.0001 18.5029C20.0002 18.105 19.8423 17.7234 19.561 17.442L14.3 12.179Z" fill="black"/>
</svg>
